<svg xmlns="http://www.w3.org/2000/svg" width="1024" height="1024" viewBox="0 0 1024 1024">
  <defs>
    <linearGradient id="bg" x1="0" y1="0" x2="0" y2="1">
      <stop offset="0" stop-color="#14B8A6"/>
      <stop offset="1" stop-color="#0F766E"/>
    </linearGradient>
    <filter id="shadow" x="-30%" y="-30%" width="160%" height="160%">
      <feDropShadow dx="0" dy="18" stdDeviation="26" flood-color="#0B1020" flood-opacity="0.28"/>
    </filter>
    <clipPath id="page"><rect x="288" y="224" width="448" height="576" rx="34"/></clipPath>
  </defs>
  <rect x="96" y="96" width="832" height="832" rx="188" fill="url(#bg)"/>
  <rect x="96" y="96" width="832" height="430" rx="188" fill="#FFFFFF" opacity="0.06"/>
  <g filter="url(#shadow)"><rect x="288" y="224" width="448" height="576" rx="34" fill="#FFFFFF"/></g>
  <g clip-path="url(#page)">
    <rect x="288" y="224" width="92" height="576" fill="#EDF0F5"/>
    <rect x="379" y="224" width="3" height="576" fill="#D7DCE5"/>
    <rect x="382" y="495" width="354" height="27" fill="#F59E0B" opacity="0.16"/>
  </g>
  <g>
    <rect x="312" y="251" width="40" height="10" rx="5" fill="#B8C0CC"/>
    <rect x="404" y="250" width="276" height="13" rx="6" fill="#CBD2DD"/>
    <rect x="312" y="279" width="40" height="10" rx="5" fill="#B8C0CC"/>
    <rect x="404" y="278" width="250" height="13" rx="6" fill="#CBD2DD"/>
    <rect x="312" y="307" width="40" height="10" rx="5" fill="#B8C0CC"/>
    <rect x="404" y="306" width="300" height="13" rx="6" fill="#CBD2DD"/>
    <rect x="312" y="335" width="40" height="10" rx="5" fill="#B8C0CC"/>
    <rect x="404" y="334" width="214" height="13" rx="6" fill="#CBD2DD"/>
    <rect x="312" y="363" width="40" height="10" rx="5" fill="#B8C0CC"/>
    <rect x="404" y="362" width="268" height="13" rx="6" fill="#CBD2DD"/>
    <rect x="312" y="391" width="40" height="10" rx="5" fill="#B8C0CC"/>
    <rect x="404" y="390" width="292" height="13" rx="6" fill="#CBD2DD"/>
    <rect x="312" y="419" width="40" height="10" rx="5" fill="#B8C0CC"/>
    <rect x="404" y="418" width="182" height="13" rx="6" fill="#CBD2DD"/>
    <rect x="312" y="447" width="40" height="10" rx="5" fill="#B8C0CC"/>
    <rect x="404" y="446" width="258" height="13" rx="6" fill="#CBD2DD"/>
    <rect x="312" y="475" width="40" height="10" rx="5" fill="#B8C0CC"/>
    <rect x="404" y="474" width="300" height="13" rx="6" fill="#CBD2DD"/>
    <rect x="312" y="503" width="40" height="10" rx="5" fill="#D98A0B"/>
    <rect x="404" y="502" width="150" height="13" rx="6" fill="#F59E0B"/>
    <rect x="312" y="531" width="40" height="10" rx="5" fill="#B8C0CC"/>
    <rect x="404" y="530" width="228" height="13" rx="6" fill="#CBD2DD"/>
    <rect x="312" y="559" width="40" height="10" rx="5" fill="#B8C0CC"/>
    <rect x="404" y="558" width="278" height="13" rx="6" fill="#CBD2DD"/>
    <rect x="312" y="587" width="40" height="10" rx="5" fill="#B8C0CC"/>
    <rect x="404" y="586" width="200" height="13" rx="6" fill="#CBD2DD"/>
    <rect x="312" y="615" width="40" height="10" rx="5" fill="#B8C0CC"/>
    <rect x="404" y="614" width="290" height="13" rx="6" fill="#CBD2DD"/>
    <rect x="312" y="643" width="40" height="10" rx="5" fill="#B8C0CC"/>
    <rect x="404" y="642" width="242" height="13" rx="6" fill="#CBD2DD"/>
    <rect x="312" y="671" width="40" height="10" rx="5" fill="#B8C0CC"/>
    <rect x="404" y="670" width="300" height="13" rx="6" fill="#CBD2DD"/>
    <rect x="312" y="699" width="40" height="10" rx="5" fill="#B8C0CC"/>
    <rect x="404" y="698" width="214" height="13" rx="6" fill="#CBD2DD"/>
    <rect x="312" y="727" width="40" height="10" rx="5" fill="#B8C0CC"/>
    <rect x="404" y="726" width="262" height="13" rx="6" fill="#CBD2DD"/>
    <rect x="312" y="755" width="40" height="10" rx="5" fill="#B8C0CC"/>
    <rect x="404" y="754" width="236" height="13" rx="6" fill="#CBD2DD"/>
  </g>
</svg>